<?xml version="1.0" encoding="UTF-8" standalone="no"?>
<!DOCTYPE svg PUBLIC "-//W3C//DTD SVG 1.1//EN" "http://www.w3.org/Graphics/SVG/1.1/DTD/svg11.dtd">
<svg width="100%" height="100%" viewBox="0 0 97 31" version="1.1" xmlns="http://www.w3.org/2000/svg" xmlns:xlink="http://www.w3.org/1999/xlink" xml:space="preserve" xmlns:serif="http://www.serif.com/" style="fill-rule:evenodd;clip-rule:evenodd;stroke-linejoin:round;stroke-miterlimit:2;">
    <g transform="matrix(1,0,0,1,-205.903125,-158.615937)">
        <g transform="matrix(0.211488,0,0,0.65025,202.470662,153.646847)">
            <path d="M76.956,33.173L76.956,37.924L102.809,43.812L102.809,28.094L72.227,21.129L41.646,28.094L41.646,47.455L32.189,49.609L32.189,26.493L72.227,17.375L112.266,26.493L112.266,49.688L112.124,49.688L67.499,39.525L67.499,33.173L60.716,34.717L44.229,34.717L67.499,29.418L67.499,25.89L72.227,24.813L76.956,25.89L76.956,29.418L100.226,34.717L83.738,34.717L76.956,33.173ZM72.227,12.621L128.224,25.374L111.737,25.374L72.227,16.376L32.718,25.374L16.23,25.374L72.227,12.621ZM72.227,41.638L128.224,54.391L111.737,54.391L72.227,45.393L32.718,54.391L16.23,54.391L72.227,41.638ZM44.229,14.5L72.227,8.124L100.226,14.5L83.738,14.5L72.227,11.879L60.716,14.5L44.229,14.5Z" style="fill:rgb(26,44,163);"/>
        </g>
        <g transform="matrix(1,0,0,1,103.737184,38.212824)">
            <g transform="matrix(11.25,0,0,11.25,199.121006,150.843305)">
            </g>
            <text x="130.687px" y="150.843px" style="font-family:'Oswald-Regular', 'Oswald';font-size:11.25px;fill:rgb(29,46,164);">DZAMBU TRA<tspan x="184.395px " y="150.843px ">V</tspan>EL</text>
        </g>
        <g transform="matrix(1.039314,0,0,1.039314,147.540643,88.944055)">
            <g transform="matrix(10,0,0,10,98.460775,77.739549)">
            </g>
            <g transform="matrix(10,0,0,10,98.460775,77.739549)">
            </g>
            <g transform="matrix(10,0,0,10,105.1014,77.739549)">
            </g>
            <g transform="matrix(10,0,0,10,105.1014,77.739549)">
            </g>
            <g transform="matrix(10,0,0,10,119.554525,77.739549)">
            </g>
            <g transform="matrix(10,0,0,10,126.19515,77.739549)">
            </g>
            <g transform="matrix(10,0,0,10,134.00765,77.739549)">
            </g>
            <g transform="matrix(10,0,0,10,140.550619,77.739549)">
            </g>
            <text x="84.301px" y="77.74px" style="font-family:'Uchen-Regular', 'Uchen';font-size:10px;fill:rgb(26,44,163);">ཟམ་ག་བ་བལ།</text>
        </g>
    </g>
</svg>
