<?xml version="1.0" encoding="UTF-8"?>
<svg version="1.1" xmlns="http://www.w3.org/2000/svg" width="512" height="512">
<path d="M0 0 C0.88798279 -0.0065712 1.77596558 -0.0131424 2.69085693 -0.01991272 C5.63798095 -0.03966948 8.58505393 -0.05131412 11.53222656 -0.0612793 C12.53789925 -0.06535482 13.54357193 -0.06943035 14.57971954 -0.07362938 C19.9034047 -0.0945011 25.227064 -0.10879757 30.55078125 -0.11816406 C36.04995559 -0.12922574 41.54872497 -0.16361986 47.0477562 -0.20333576 C51.27541862 -0.22948306 55.50298434 -0.23785427 59.73072052 -0.24144554 C61.75770042 -0.24631703 63.78467585 -0.25794697 65.81157684 -0.27648354 C68.6507522 -0.30083271 71.48887718 -0.29991751 74.328125 -0.29296875 C75.5814563 -0.31218384 75.5814563 -0.31218384 76.86010742 -0.33178711 C82.18641947 -0.28433766 85.17801778 0.67040684 89.42285156 4.17700195 C93.65843517 9.48526161 94.07274658 15.69759187 94.42285156 22.23950195 C96.22462141 45.54252756 106.02255668 69.75144715 123.95166016 85.52172852 C143.74762366 102.26815307 165.39635175 111.0313535 191.33691406 111.77075195 C196.1740554 112.40754018 199.43593016 114.1100599 202.73535156 117.67700195 C205.79414196 122.20854328 205.58258944 126.41058532 205.59985352 131.68408203 C205.60642471 132.5527037 205.61299591 133.42132538 205.61976624 134.31626892 C205.63948937 137.19302455 205.65115918 140.06972803 205.66113281 142.9465332 C205.66520834 143.92922369 205.66928387 144.91191418 205.67348289 145.92438316 C205.69433866 151.12487961 205.70864296 156.32534969 205.71801758 161.52587891 C205.72908562 166.89611325 205.76349161 172.26593366 205.80318928 177.63602161 C205.82933663 181.76674672 205.83770771 185.89737286 205.84129906 190.02817345 C205.84616926 192.00770554 205.85779558 193.98723309 205.87633705 195.96668434 C205.90069008 198.73870275 205.89977059 201.5096456 205.89282227 204.28173828 C205.90563232 205.09701996 205.91844238 205.91230164 205.93164062 206.75228882 C205.88350038 212.02945851 204.88431415 214.97213634 201.42285156 219.17700195 C196.24057609 223.86758563 191.5679404 223.76874107 184.92285156 223.61450195 C183.91109863 223.60056396 182.8993457 223.58662598 181.85693359 223.57226562 C160.00669753 223.05153729 138.53300438 218.65389813 117.98535156 211.30200195 C117.13457031 210.99883057 116.28378906 210.69565918 115.40722656 210.38330078 C110.13288797 208.41605756 105.10253569 206.07706865 100.08276367 203.53588867 C99.43957939 203.2122081 98.79639511 202.88852753 98.1337204 202.55503845 C96.56257351 201.76406016 94.99259142 200.97076891 93.42285156 200.17700195 C93.42561694 200.9485537 93.42838232 201.72010544 93.4312315 202.51503754 C93.49785623 221.40027857 93.54730795 240.28549576 93.57828808 259.17082977 C93.59367295 268.30411535 93.61459941 277.43732186 93.64916992 286.57055664 C93.67933187 294.5429727 93.6984872 302.51533144 93.70511705 310.48780298 C93.70898459 314.69837715 93.71789233 318.9087875 93.74004173 323.11930847 C93.96654942 368.00217295 87.69611592 409.70937499 59.42285156 446.17700195 C58.7821875 447.02262695 58.14152344 447.86825195 57.48144531 448.73950195 C42.41529489 467.95098788 24.10485231 483.06536691 2.42285156 494.17700195 C1.74641602 494.52746582 1.06998047 494.87792969 0.37304688 495.23901367 C-10.54945147 500.83440784 -21.69083181 505.11090399 -33.57714844 508.17700195 C-34.80788086 508.49459473 -34.80788086 508.49459473 -36.06347656 508.81860352 C-61.26652782 514.95880635 -90.49921422 514.687208 -115.57714844 508.17700195 C-116.32222656 507.99508301 -117.06730469 507.81316406 -117.83496094 507.62573242 C-159.1533919 497.41475092 -195.99442912 469.36500031 -218.26464844 433.36450195 C-232.39349578 409.91255457 -242.51359399 382.75610167 -242.81542969 355.1105957 C-242.82531418 354.36295959 -242.83519867 353.61532349 -242.84538269 352.84503174 C-243.1811839 320.82273014 -238.49786942 291.49314141 -222.57714844 263.17700195 C-222.24134766 262.56099121 -221.90554687 261.94498047 -221.55957031 261.31030273 C-200.46464807 222.7930562 -162.90280691 194.40383503 -120.97924805 182.13549805 C-105.45087782 177.84789838 -80.43899289 171.01238057 -65.26074219 178.6184082 C-61.45261688 182.14379567 -59.38773584 186.27065378 -59.06921387 191.39515686 C-59.04569747 192.97599414 -59.04370772 194.55725099 -59.05957031 196.13818359 C-59.05256104 197.00738937 -59.04555176 197.87659515 -59.03833008 198.7721405 C-59.02081403 201.62747734 -59.03234896 204.48181238 -59.04589844 207.3371582 C-59.04320193 209.33060393 -59.03931819 211.32404838 -59.03430176 213.31748962 C-59.02841558 217.48766652 -59.03694229 221.65749987 -59.05566406 225.82763672 C-59.0784678 231.16645896 -59.06531578 236.50447744 -59.04137421 241.8432703 C-59.02690516 245.95688409 -59.03152707 250.07030796 -59.04188538 254.18392754 C-59.04454882 256.15226779 -59.04129637 258.12062544 -59.03196716 260.08894539 C-59.02178174 262.84149855 -59.03732966 265.5927578 -59.05957031 268.34521484 C-59.05147339 269.15421234 -59.04337646 269.96320984 -59.03503418 270.79672241 C-59.11358349 276.05738716 -60.18823138 278.94865129 -63.57714844 283.17700195 C-64.01027344 283.75450195 -64.44339844 284.33200195 -64.88964844 284.92700195 C-69.48018606 288.32740019 -75.76221904 288.49127203 -81.26464844 288.98950195 C-92.57325486 290.23131348 -104.12755928 294.49429512 -112.19824219 302.85668945 C-113.57714844 304.17700195 -113.57714844 304.17700195 -115.57714844 304.17700195 C-115.83882813 304.74547852 -116.10050781 305.31395508 -116.37011719 305.8996582 C-117.67067323 308.35345811 -119.20912895 310.40486103 -120.88964844 312.61450195 C-129.60035137 324.87131568 -132.44409782 339.45138926 -130.27685547 354.22387695 C-127.32434186 369.50924675 -119.16809693 381.82775965 -106.63964844 391.05200195 C-101.86155185 394.19548655 -97.01297067 396.42379511 -91.57714844 398.17700195 C-90.55427734 398.51538086 -90.55427734 398.51538086 -89.51074219 398.8605957 C-74.55776792 402.97479166 -59.77136087 399.77650294 -46.31933594 392.8059082 C-42.65251097 390.62775149 -39.72062155 388.04712958 -36.57714844 385.17700195 C-35.91714844 385.17700195 -35.25714844 385.17700195 -34.57714844 385.17700195 C-34.30515625 384.59047852 -34.03316406 384.00395508 -33.75292969 383.3996582 C-32.59995708 381.22011863 -31.32272555 379.51790486 -29.76464844 377.61450195 C-21.05130002 366.17423764 -19.27603057 354.28940882 -19.31886292 340.31639099 C-19.31600542 338.90791648 -19.31226587 337.49944353 -19.30772442 336.09097344 C-19.29777357 332.23459772 -19.30010881 328.37831328 -19.30445135 324.52193081 C-19.30693289 320.35760696 -19.29785257 316.19330677 -19.29006958 312.0289917 C-19.27803767 304.81709318 -19.27291735 297.60521673 -19.27218819 290.39330864 C-19.27086141 279.95853203 -19.2557402 269.52380895 -19.23669302 259.08905125 C-19.20586659 242.14840407 -19.18169318 225.20775553 -19.16381836 208.26708984 C-19.16274568 207.25365039 -19.161673 206.24021094 -19.16056781 205.1960612 C-19.14874436 193.88603907 -19.13853873 182.57601639 -19.13012695 171.26599121 C-19.1270529 167.16284178 -19.12396414 163.05969237 -19.12084961 158.95654297 C-19.12008427 157.94403709 -19.11931893 156.93153121 -19.1185304 155.88834333 C-19.10545151 139.0090385 -19.08081753 122.12977251 -19.04710621 105.25049645 C-19.02681384 94.84099124 -19.01652714 84.43156908 -19.01909541 74.02204395 C-19.02013005 66.8918355 -19.01050059 59.76169274 -18.99245638 52.63150721 C-18.98240731 48.51722225 -18.97728773 44.40308263 -18.98522377 40.28878975 C-18.99240361 36.52179205 -18.98581797 32.75507746 -18.96833836 28.98811579 C-18.96261963 26.98151623 -18.97166031 24.97489132 -18.98124129 22.96830648 C-18.92577012 14.8947267 -18.54442184 9.50613797 -13.01464844 3.30200195 C-8.81927846 -0.35550008 -5.34968772 0.01705064 0 0 Z M12.42285156 30.17700195 C12.41920593 34.23593246 12.4155603 38.29486298 12.4118042 42.47679138 C12.37648631 79.74540277 12.32140782 117.01394333 12.24493061 154.28249374 C12.23491382 159.1725411 12.22506957 164.06258879 12.21533203 168.95263672 C12.21241997 170.41284435 12.21241997 170.41284435 12.20944908 171.90255112 C12.17847462 187.64028831 12.16146117 203.37801093 12.14965734 219.11577284 C12.13722214 235.27846369 12.10966744 251.44107842 12.0682385 267.6037212 C12.04317077 277.56738931 12.02972936 287.53093109 12.03142199 297.49463118 C12.03145187 304.33814692 12.01672259 311.18153452 11.99068728 318.02500027 C11.97611937 321.96633011 11.96777061 325.90739721 11.97704887 329.84874916 C12.05528083 367.35139747 12.05528083 367.35139747 3.54785156 382.67700195 C3.19835449 383.33659912 2.84885742 383.99619629 2.48876953 384.67578125 C-9.28371498 406.56246397 -26.35782478 420.51102055 -49.78808594 428.2355957 C-72.39931988 434.70922296 -96.7722335 431.91779177 -117.57714844 421.17700195 C-122.16522651 418.51200691 -126.38000468 415.42134584 -130.57714844 412.17700195 C-131.22683594 411.71036133 -131.87652344 411.2437207 -132.54589844 410.76293945 C-148.30445694 398.64668929 -157.76146525 378.02473233 -161.15527344 358.9230957 C-163.84590102 335.03131933 -159.73560842 310.98783268 -144.66699219 291.6965332 C-143.97734375 290.86508789 -143.28769531 290.03364258 -142.57714844 289.17700195 C-141.8771875 288.31461914 -141.17722656 287.45223633 -140.45605469 286.5637207 C-133.19280269 278.03166533 -124.78171073 272.10219877 -114.88964844 266.98950195 C-114.30368896 266.68061035 -113.71772949 266.37171875 -113.11401367 266.0534668 C-105.80622497 262.44319102 -98.57671 260.67686494 -90.57714844 258.17700195 C-90.57714844 241.67700195 -90.57714844 225.17700195 -90.57714844 208.17700195 C-102.70112242 209.85870292 -102.70112242 209.85870292 -114.38964844 212.80200195 C-115.6545813 213.1911377 -115.6545813 213.1911377 -116.94506836 213.58813477 C-152.64735196 224.99624266 -181.4189322 251.12852754 -198.57714844 284.17700195 C-212.13033165 311.57078272 -216.95837998 347.45597367 -208.57714844 377.17700195 C-208.24650391 378.37462158 -208.24650391 378.37462158 -207.90917969 379.59643555 C-197.70678113 415.41954001 -175.0385695 445.46226107 -142.65527344 464.02026367 C-126.5579941 472.98042691 -108.9985004 479.38035158 -90.57714844 481.17700195 C-89.40925781 481.30977539 -88.24136719 481.44254883 -87.03808594 481.5793457 C-52.06494631 484.74900907 -16.03134796 474.12608713 11.05297852 451.65893555 C13.90016835 449.22595933 16.67341755 446.71948932 19.42285156 444.17700195 C20.67001953 443.03618164 20.67001953 443.03618164 21.94238281 441.87231445 C48.10873892 416.85159565 61.7537471 381.30589909 62.64841682 345.51778954 C62.85295608 334.61984105 62.81820585 323.71932405 62.7972362 312.81997418 C62.79166316 307.71572459 62.8062719 302.61153827 62.81959534 297.50730896 C62.85551597 282.38297575 62.86201166 267.25864945 62.85949707 252.13427734 C62.85778499 240.32677586 62.86488244 228.51942888 62.89947563 216.71197075 C62.91623332 210.65235529 62.91450984 204.59311838 62.89865291 198.53350461 C62.89285582 194.77245515 62.90359358 191.01158555 62.91889954 187.25056839 C62.92262332 185.51031645 62.91952476 183.77003422 62.90902901 182.02980995 C62.89563642 179.65077225 62.90688378 177.27304381 62.92405701 174.89405823 C62.90934684 173.86741486 62.90934684 173.86741486 62.8943395 172.82003123 C62.9737721 167.48343018 64.4506476 164.46454905 67.42285156 160.17700195 C72.14193191 157.41678515 75.99951273 156.51097789 81.42285156 157.17700195 C86.05555487 159.04633837 89.99440469 161.5297562 94.16357422 164.27148438 C111.00604462 175.3338508 129.09541583 182.96677432 148.61035156 187.98950195 C149.72941895 188.28183716 149.72941895 188.28183716 150.87109375 188.58007812 C158.7244935 190.48630021 166.25207393 191.15565475 174.42285156 192.17700195 C174.42285156 175.67700195 174.42285156 159.17700195 174.42285156 142.17700195 C170.68972656 141.35200195 166.95660156 140.52700195 163.11035156 139.67700195 C129.69036013 131.84269366 101.35938648 113.39139872 82.80566406 84.12231445 C77.15733638 74.91813884 72.6159201 65.39345185 69.11035156 55.17700195 C68.87993164 54.51466553 68.64951172 53.8523291 68.41210938 53.16992188 C65.9538619 45.5722767 64.92478984 38.18733945 63.42285156 30.17700195 C46.59285156 30.17700195 29.76285156 30.17700195 12.42285156 30.17700195 Z " fill="#fff" transform="translate(274.5771484375,-0.177001953125)"/>
</svg>
